FFmpeg version SVN-r25716, Copyright (c) 2000-2010 the FFmpeg developers  built on Nov 10 2010 12:23:18 with gcc 4.1.2 20080704 (Red Hat 4.1.2-48)  configuration: --enable-libmp3lame --enable-shared --disable-mmx --arch=x86_64  libavutil     50.33. 0 / 50.33. 0  libavcore      0.12. 1 /  0.12. 1  libavcodec    52.94. 4 / 52.94. 4  libavformat   52.84. 0 / 52.84. 0  libavdevice   52. 2. 2 / 52. 2. 2  libavfilter    1.59. 0 /  1.59. 0  libswscale     0.12. 0 /  0.12. 0[mov,mp4,m4a,3gp,3g2,mj2 @ 0x51ae4c0] multiple edit list entries, a/v desync might occur, patch welcomeInput #0, mov,mp4,m4a,3gp,3g2,mj2, from '/RAID10/data/converted_video_files/11924.mov':  Duration: 00:00:02.66, bitrate: 7195 kb/s    Stream #0.0(eng): Video: svq1, yuv410p, 371x337, 7187 kb/s, 22.88 fps, 24 tbr, 24 tbn, 24 tbc[buffer @ 0x51b15d0] w:371 h:337 pixfmt:yuv410p[ffsink @ 0x51b3a50] auto-inserting filter 'auto-inserted scaler 0' between the filter 'src' and the filter 'out'[scale @ 0x51b3d70] w:371 h:337 fmt:yuv410p -> w:371 h:337 fmt:yuv420p flags:0x4Output #0, flv, to '/RAID10/data/converted_video_files/11924.flv':  Metadata:    encoder         : Lavf52.84.0    Stream #0.0(eng): Video: flv, yuv420p, 371x337, q=2-31, 600 kb/s, 1k tbn, 24 tbcStream mapping:  Stream #0.0 -> #0.0Press [q] to stop encodingframe=   58 fps=  0 q=19.6 Lsize=     354kB time=2.42 bitrate=1200.8kbits/s dup=0 drop=3    video:353kB audio:0kB global headers:0kB muxing overhead 0.314663%